#!OML:ASF F:\VICON\USERDATA\INSTALL\rory3\rory3.ASF
:FULLY-SPECIFIED
:DEGREES
62
root 0.5981962080884758 18.19049917983295 9.824429953789778 9.603361300775319 -1.9958460034487864 -2.7560196309216223
lfemur -36.05752466813696 6.11762037697096 -18.26924284366689
ltibia 38.54929052797374
lfoot -10.00587500820145 5.613223027720232
ltoes -14.99835996489987
rfemur -25.695152724406277 -0.8515022768505427 21.50762054274467
rtibia 32.65140815744744
rfoot -10.337619783666526 0.8553771611787662
rtoes 9.858733239982922
lowerback 11.220024853447246 0.8114260924032864 -0.03492375188594543
upperback 6.696647513544813 1.0353957876666007 1.469272619261525
thorax 0.7711831782846009 0.4560823033862211 1.8189869420109228
lowerneck -11.861833009815234 0.3769462281304662 0.8444848194851352
upperneck 30.417970748777158 0.2522487970495195 0.3935648277581644
head 12.086503743472123 0.1344919967648 0.40558862886565816
lclavicle 3.878730562233802e-16 -1.4346662569513965e-15
lhumerus -44.69597744077226 -7.0266065990176365 84.20505618545502
lradius 26.62197220097561
lwrist 33.04045061368934
lhand -27.68053717762603 -11.811843205733666
lfingers 7.12502
lthumb -2.0735896947501353 17.57351680779374
rclavicle 3.883659942358334e-16 -1.4341088228669844e-15
rhumerus -20.943677388816322 -8.260492265309553 -81.22090413722418
rradius 35.49911209278294
rwrist 24.368420158155516
rhand -22.12686860632681 -25.488330408196003
rfingers 7.12502
rthumb 4.4850000547671 -54.492665204465816
63
root 0.6134175398092263 18.45651883770306 10.085601098354836 12.617136986898501 -1.1935374475714517 -3.0783943730257737
lfemur -34.29177763766108 5.578845829092881 -17.975563357980683
ltibia 35.28951414509374
lfoot -9.604136136880463 5.299180818955293
ltoes -13.705644435479822
rfemur -25.405942801316666 -1.0440338515224254 21.889238763115898
rtibia 31.273209899597134
rfoot -9.896358470422886 0.707734525151531
rtoes 11.189643377184552
lowerback 9.698599306274925 0.45389710339318157 0.11759795958158514
upperback 6.423053641060376 0.5698318692082952 1.5940892859684064
thorax 1.595581150673352 0.24052155149521723 1.8629479293795668
lowerneck -12.225230590379084 0.40625439561057575 0.6447554422207903
upperneck 30.05770098066471 0.3094020736788359 0.4010669091639421
head 12.186154489699996 0.16638116213293877 0.40683021854017354
lclavicle 3.8653306705131927e-16 -1.4364953519959686e-15
lhumerus -47.8262781616478 -7.041821135081715 83.55554210510888
lradius 25.71275592024358
lwrist 30.46029058302831
lhand -27.606112163801733 -11.055052101081886
lfingers 7.12502
lthumb -1.4933458385612943 18.224016853743183
rclavicle 3.88403981225492e-16 -1.434055910509014e-15
rhumerus -21.267254566402535 -8.912466592720614 -78.64551351680936
rradius 34.69701090493135
rwrist 25.216727507387304
rhand -22.39304234706744 -26.10954785007145
rfingers 7.12502
rthumb 4.567154442957385 -54.92656589339036
64
root 0.6275851533608118 18.627561778674284 10.259989988982811 15.091034249183657 -0.2258161619702217 -3.078281322588469
lfemur -33.542734101599066 4.9781339625929 -18.036690029959026
ltibia 34.062166333783715
lfoot -9.420865721222443 5.134515997187092
ltoes -12.304723510221853
rfemur -25.544309742722128 -1.237613604213704 21.953483340049786
rtibia 30.621516890634453
rfoot -9.817658748626638 0.5157557220491631
rtoes 11.384726304012744
lowerback 8.973234493535987 0.21294173419476076 0.017902731953053197
upperback 6.205603809186103 0.24582795429831494 1.6547417169509366
thorax 2.2308740386074617 0.07653065709156048 1.9296053557842094
lowerneck -12.589329736764183 0.36588378246976405 0.447059467301283
upperneck 29.854840477849237 0.254160573822384 0.43018416181053093
head 12.437280385275955 0.14871878302614894 0.3978839731289753
lclavicle 3.876755675196962e-16 -1.434836942209008e-15
lhumerus -49.004675769464484 -6.157204897931988 82.15987080333157
lradius 24.09767682383842
lwrist 26.03789396937798
lhand -27.873913855509205 -10.640195114571199
lfingers 7.12502
lthumb -1.411361546310339 18.70301057206524
rclavicle 3.891216250446317e-16 -1.4330475659489258e-15
rhumerus -21.297391427500532 -10.526273899902224 -75.99688678807055
rradius 32.51370401100669
rwrist 27.302893412728395
rhand -22.219305457167142 -26.628619537084955
rfingers 7.12502
rthumb 4.931582226749387 -55.22895040007608
65
root 0.659757247664873 18.722169613120396 10.65038130424346 16.785677628712957 0.2725084691087858 -3.1999462228602167
lfemur -32.354137666910844 4.75127212753572 -17.873116737658677
ltibia 32.85922841089593
lfoot -9.367542228805675 5.139156816797928
ltoes -12.067086724778955
rfemur -25.680244950512087 -1.2587045100112195 22.05266120937532
rtibia 29.60034091550286
rfoot -9.807906768426323 0.4586019625684288
rtoes 11.02734373624724
lowerback 8.858643195538097 0.26949436099658125 0.2717792914104093
upperback 6.043297294961596 0.3171183553761589 1.70508375589835
thorax 2.567754330447712 0.10484322071894692 1.8500189925084243
lowerneck -12.77697331193703 0.25640979298376393 0.32375041517976333
upperneck 29.87008523655605 0.11374401977660731 0.4799501273550489
head 12.431114534570343 0.09338599844521622 0.418594547661459
lclavicle 3.886996193433604e-16 -1.4333751408698266e-15
lhumerus -48.915054245128474 -4.714443989757598 80.46305966049295
lradius 22.470353225177014
lwrist 21.47934317984977
lhand -27.80963264507489 -10.359221890513659
lfingers 7.12502
lthumb -1.4283047200963357 18.895069746178887
rclavicle 3.900592203435449e-16 -1.4317272517656366e-15
rhumerus -21.909104460606358 -12.860651983895556 -73.52846653223872
rradius 29.20324326314727
rwrist 29.82312321632112
rhand -21.918684955959254 -27.061949016448196
rfingers 7.12502
rthumb 5.3044172614368605 -55.62341887473424
